{
  "asset": {
    "version": "2.0",
    "generator": "THREE.GLTFExporter"
  },
  "scenes": [
    {
      "nodes": [
        0
      ]
    }
  ],
  "scene": 0,
  "nodes": [
    {
      "children": [
        15
      ],
      "matrix": [
        0.01,
        0,
        0,
        0,
        0,
        0.01,
        0,
        0,
        0,
        0,
        0.01,
        0,
        0,
        0,
        0,
        1
      ]
    },
    {
      "matrix": [
        0.7562707812378412,
        1.393607333174763e-8,
        -0.6542587450282229,
        0,
        -0.2316272522166716,
        0.935234055566745,
        -0.26774255795209845,
        0,
        0.611885055771474,
        0.3540300288226667,
        0.7072901930716712,
        0,
        532.6805030634013,
        969.0038226224344,
        624.0165635274814,
        1
      ],
      "name": "Camera",
      "camera": 0
    },
    {
      "matrix": [
        1,
        0,
        0,
        0,
        0,
        1,
        0,
        0,
        0,
        0,
        1,
        0,
        -817.776871998887,
        223.76421547331665,
        -731.9661945748487,
        1
      ],
      "name": "Top Light",
      "extensions": {
        "KHR_lights_punctual": {
          "light": 0
        }
      }
    },
    {
      "matrix": [
        1,
        0,
        0,
        0,
        0,
        1,
        0,
        0,
        0,
        0,
        1,
        0,
        -815.2270954649357,
        -548.2191627155789,
        -794.4178787765147,
        1
      ],
      "name": "Back light",
      "extensions": {
        "KHR_lights_punctual": {
          "light": 1
        }
      }
    },
    {
      "matrix": [
        0.5734887910624257,
        0.5903516048804694,
        -0.5679749898902341,
        0,
        -0.7172767242246147,
        0.6967884190237421,
        0,
        0,
        0.3957583952506421,
        0.4073952401899758,
        0.823045813341632,
        0,
        0,
        0,
        0,
        1
      ],
      "name": "Directional Light",
      "extensions": {
        "KHR_lights_punctual": {
          "light": 2
        }
      }
    },
    {
      "matrix": [
        1,
        0,
        0,
        0,
        0,
        1,
        0,
        0,
        0,
        0,
        1,
        0,
        472.4443783908663,
        1076.0173583750347,
        375.63680534691633,
        1
      ],
      "name": "Lights",
      "children": [
        2,
        3,
        4
      ]
    },
    {
      "matrix": [
        1,
        2.443327242190272e-16,
        -1.708540845810717e-17,
        0,
        -2.4492652459956755e-16,
        0.9978881414113298,
        -0.06495580982977772,
        0,
        1.1784965219566652e-18,
        0.06495580982977772,
        0.9978881414113298,
        0,
        -348.4999996097784,
        527.8723223934936,
        -350.2309356411086,
        0.9999999999999999
      ],
      "name": "MOCKUP (change image)",
      "mesh": 0
    },
    {
      "matrix": [
        -99.9999999999924,
        0.0000025085208702690353,
        0.000038941437761078755,
        0,
        0.000039022147270405194,
        6.445235730695818,
        99.79207087988195,
        0,
        -6.5625462367521755e-9,
        99.79207087988961,
        -6.445235730696296,
        0,
        -8.30661640570418e-15,
        57.8482165816532,
        14.155182480799171,
        0.9999999999999998
      ],
      "name": "Frame",
      "mesh": 1
    },
    {
      "matrix": [
        -0.000007549789924842508,
        -4.374893226349084e-22,
        -99.99999999999969,
        0,
        99.9999999999984,
        0.00001629206794497786,
        -0.000007549789935269399,
        0,
        -0.00001629206793904829,
        99.99999999999864,
        1.2045919813277707e-12,
        0,
        5.834268884683098e-14,
        -100.73025937049519,
        -11.84631288052889,
        1
      ],
      "name": "Stand",
      "mesh": 2
    },
    {
      "matrix": [
        -99.9999999999924,
        0.0000025085208702690353,
        0.000038941437761078755,
        0,
        0.000039022147270405194,
        6.445235730695818,
        99.79207087988195,
        0,
        -6.5625462367521755e-9,
        99.79207087988961,
        -6.445235730696296,
        0,
        -8.30661640570418e-15,
        57.8482165816532,
        14.155182480799171,
        0.9999999999999998
      ],
      "name": "Monitor",
      "mesh": 3
    },
    {
      "matrix": [
        1.5622071680343415,
        0,
        0,
        0,
        0,
        1.5622071680343415,
        0,
        0,
        0,
        0,
        1.5622071680343415,
        0,
        -347.5476332999698,
        437.27173182585216,
        -386.6215209769789,
        1
      ],
      "name": "Display",
      "children": [
        7,
        8,
        9
      ]
    },
    {
      "matrix": [
        -1.5375811477224146,
        1.3175877848782298e-16,
        2.1382293425402888e-16,
        0,
        1.7797583114599312e-16,
        1.0000000000000002,
        1.7797583114599312e-16,
        0,
        5.147787755168179e-18,
        5.305504320488802e-19,
        -0.04636715003191563,
        0,
        -769.3270454696227,
        868.0000000000005,
        -1468.5385157408741,
        1
      ],
      "name": "Backgroud",
      "mesh": 4
    },
    {
      "matrix": [
        1050.2990530210545,
        0,
        0,
        0,
        0,
        -0.00029051144789575377,
        -1783.14655012047,
        0,
        0,
        46.183977145779174,
        -0.0000075243249438621614,
        0,
        -1752.333006547432,
        5.010524838602792,
        -148.1383751166044,
        1.0000000000000002
      ],
      "name": "Ground",
      "mesh": 5
    },
    {
      "matrix": [
        0.9944191869545369,
        1.9616246009490634e-8,
        -0.10550109296437381,
        0,
        -0.03854965338552948,
        0.9308523272048231,
        -0.3633563941383451,
        0,
        0.09820593078085134,
        0.3653956005993565,
        0.9256574151499583,
        0,
        -424.61273842300255,
        914.0852850589379,
        1028.1904173886978,
        1
      ],
      "camera": 1
    },
    {
      "matrix": [
        1,
        0,
        0,
        0,
        0,
        1,
        0,
        0,
        0,
        0,
        1,
        0,
        0,
        1,
        0,
        1
      ],
      "name": "Default Ambient Light"
    },
    {
      "name": "Scene 1",
      "children": [
        1,
        5,
        6,
        10,
        11,
        12,
        13,
        14
      ]
    }
  ],
  "cameras": [
    {
      "type": "orthographic",
      "orthographic": {
        "xmag": 7.68,
        "ymag": 3.4749999999999996,
        "zfar": 100000,
        "znear": 0
      },
      "name": "Camera"
    },
    {
      "type": "orthographic",
      "orthographic": {
        "xmag": 32.29239617612915,
        "ymag": 14.611468321881354,
        "zfar": 100000,
        "znear": 0
      }
    }
  ],
  "extensions": {
    "KHR_lights_punctual": {
      "lights": [
        {
          "name": "Top Light",
          "color": [
            1,
            1,
            1
          ],
          "intensity": 1,
          "type": "spot",
          "range": 2958,
          "spot": {
            "innerConeAngle": 0.3665191429188092,
            "outerConeAngle": 0.7330382858376184
          }
        },
        {
          "name": "Back light",
          "color": [
            1,
            1,
            1
          ],
          "intensity": 0.2,
          "type": "point",
          "range": 191
        },
        {
          "name": "Directional Light",
          "color": [
            1,
            1,
            1
          ],
          "intensity": 0.7,
          "type": "directional"
        }
      ]
    }
  },
  "bufferViews": [
    {
      "buffer": 0,
      "byteOffset": 0,
      "byteLength": 972,
      "target": 34962,
      "byteStride": 12
    },
    {
      "buffer": 0,
      "byteOffset": 972,
      "byteLength": 972,
      "target": 34962,
      "byteStride": 12
    },
    {
      "buffer": 0,
      "byteOffset": 1944,
      "byteLength": 648,
      "target": 34962,
      "byteStride": 8
    },
    {
      "buffer": 0,
      "byteOffset": 2592,
      "byteLength": 768,
      "target": 34963
    },
    {
      "buffer": 0,
      "byteOffset": 3360,
      "byteLength": 1440,
      "target": 34962,
      "byteStride": 12
    },
    {
      "buffer": 0,
      "byteOffset": 4800,
      "byteLength": 1440,
      "target": 34962,
      "byteStride": 12
    },
    {
      "buffer": 0,
      "byteOffset": 6240,
      "byteLength": 960,
      "target": 34962,
      "byteStride": 8
    },
    {
      "buffer": 0,
      "byteOffset": 7200,
      "byteLength": 33120,
      "target": 34962,
      "byteStride": 12
    },
    {
      "buffer": 0,
      "byteOffset": 40320,
      "byteLength": 33120,
      "target": 34962,
      "byteStride": 12
    },
    {
      "buffer": 0,
      "byteOffset": 73440,
      "byteLength": 22080,
      "target": 34962,
      "byteStride": 8
    },
    {
      "buffer": 0,
      "byteOffset": 95520,
      "byteLength": 2088,
      "target": 34962,
      "byteStride": 12
    },
    {
      "buffer": 0,
      "byteOffset": 97608,
      "byteLength": 2088,
      "target": 34962,
      "byteStride": 12
    },
    {
      "buffer": 0,
      "byteOffset": 99696,
      "byteLength": 1392,
      "target": 34962,
      "byteStride": 8
    },
    {
      "buffer": 0,
      "byteOffset": 101088,
      "byteLength": 7200,
      "target": 34962,
      "byteStride": 12
    },
    {
      "buffer": 0,
      "byteOffset": 108288,
      "byteLength": 7200,
      "target": 34962,
      "byteStride": 12
    },
    {
      "buffer": 0,
      "byteOffset": 115488,
      "byteLength": 4800,
      "target": 34962,
      "byteStride": 8
    },
    {
      "buffer": 0,
      "byteOffset": 120288,
      "byteLength": 4296,
      "target": 34963
    },
    {
      "buffer": 0,
      "byteOffset": 124584,
      "byteLength": 23328,
      "target": 34962,
      "byteStride": 12
    },
    {
      "buffer": 0,
      "byteOffset": 147912,
      "byteLength": 23328,
      "target": 34962,
      "byteStride": 12
    },
    {
      "buffer": 0,
      "byteOffset": 171240,
      "byteLength": 15552,
      "target": 34962,
      "byteStride": 8
    }
  ],
  "buffers": [
    {
      "byteLength": 186792,
      "uri": "data:application/octet-stream;base64,"
    }
  ],
  "accessors": [
    {
      "bufferView": 0,
      "componentType": 5126,
      "count": 81,
      "max": [
        471.5,
        267.5,
        0
      ],
      "min": [
        -471.5,
        -267.5,
        0
      ],
      "type": "VEC3"
    },
    {
      "bufferView": 1,
      "componentType": 5126,
      "count": 81,
      "max": [
        0,
        0,
        1
      ],
      "min": [
        0,
        0,
        1
      ],
      "type": "VEC3"
    },
    {
      "bufferView": 2,
      "componentType": 5126,
      "count": 81,
      "max": [
        1,
        1
      ],
      "min": [
        0,
        0
      ],
      "type": "VEC2"
    },
    {
      "bufferView": 3,
      "componentType": 5123,
      "count": 384,
      "max": [
        80
      ],
      "min": [
        0
      ],
      "type": "SCALAR"
    },
    {
      "bufferView": 4,
      "componentType": 5126,
      "count": 120,
      "max": [
        3.1498522758483887,
        0.09595977514982224,
        1.8408790826797485
      ],
      "min": [
        -3.1498522758483887,
        0.08815914392471313,
        -1.8408790826797485
      ],
      "type": "VEC3"
    },
    {
      "bufferView": 5,
      "componentType": 5126,
      "count": 120,
      "max": [
        1,
        1,
        1
      ],
      "min": [
        -1,
        0,
        -1
      ],
      "type": "VEC3"
    },
    {
      "bufferView": 6,
      "componentType": 5126,
      "count": 120,
      "max": [
        0.625,
        0.5
      ],
      "min": [
        0.375,
        0.25
      ],
      "type": "VEC2"
    },
    {
      "bufferView": 7,
      "componentType": 5126,
      "count": 2760,
      "max": [
        0.7333923578262329,
        0.7777814269065857,
        0.7912642955780029
      ],
      "min": [
        -0.970318615436554,
        -0.7777849435806274,
        -1.414415717124939
      ],
      "type": "VEC3"
    },
    {
      "bufferView": 8,
      "componentType": 5126,
      "count": 2760,
      "max": [
        1,
        1,
        1
      ],
      "min": [
        -1,
        -1,
        -1
      ],
      "type": "VEC3"
    },
    {
      "bufferView": 9,
      "componentType": 5126,
      "count": 2760,
      "max": [
        1,
        1
      ],
      "min": [
        0,
        0
      ],
      "type": "VEC2"
    },
    {
      "bufferView": 10,
      "componentType": 5126,
      "count": 174,
      "max": [
        3.1498522758483887,
        0.09595977514982224,
        1.8408790826797485
      ],
      "min": [
        -3.1498522758483887,
        -0.09595977514982224,
        -1.8408790826797485
      ],
      "type": "VEC3"
    },
    {
      "bufferView": 11,
      "componentType": 5126,
      "count": 174,
      "max": [
        0.9951850771903992,
        0,
        0.9951849579811096
      ],
      "min": [
        -0.9951850771903992,
        -1,
        -0.9951849579811096
      ],
      "type": "VEC3"
    },
    {
      "bufferView": 12,
      "componentType": 5126,
      "count": 174,
      "max": [
        0.875,
        1
      ],
      "min": [
        0.125,
        0
      ],
      "type": "VEC2"
    },
    {
      "bufferView": 13,
      "componentType": 5126,
      "count": 600,
      "max": [
        1326,
        804,
        1326
      ],
      "min": [
        -1326,
        -804,
        -1326
      ],
      "type": "VEC3"
    },
    {
      "bufferView": 14,
      "componentType": 5126,
      "count": 600,
      "max": [
        1,
        1,
        1
      ],
      "min": [
        -1,
        -1,
        -1
      ],
      "type": "VEC3"
    },
    {
      "bufferView": 15,
      "componentType": 5126,
      "count": 600,
      "max": [
        1,
        1
      ],
      "min": [
        0,
        0
      ],
      "type": "VEC2"
    },
    {
      "bufferView": 16,
      "componentType": 5123,
      "count": 2148,
      "max": [
        599
      ],
      "min": [
        0
      ],
      "type": "SCALAR"
    },
    {
      "bufferView": 17,
      "componentType": 5126,
      "count": 1944,
      "max": [
        2.8400001525878906,
        1,
        1.1652405261993408
      ],
      "min": [
        -1,
        -1,
        -1
      ],
      "type": "VEC3"
    },
    {
      "bufferView": 18,
      "componentType": 5126,
      "count": 1944,
      "max": [
        1,
        1,
        1
      ],
      "min": [
        -1,
        -1,
        -1
      ],
      "type": "VEC3"
    },
    {
      "bufferView": 19,
      "componentType": 5126,
      "count": 1944,
      "max": [
        0.875,
        1
      ],
      "min": [
        0.125,
        0
      ],
      "type": "VEC2"
    }
  ],
  "meshes": [
    {
      "primitives": [
        {
          "mode": 4,
          "attributes": {
            "POSITION": 0,
            "NORMAL": 1,
            "TEXCOORD_0": 2
          },
          "extras": {
            "parameters": {
              "width": 943,
              "depth": 0,
              "widthSegments": 8,
              "heightSegments": 8,
              "height": 535,
              "type": "PlaneGeometry"
            },
            "type": "PlaneGeometry"
          },
          "indices": 3
        }
      ]
    },
    {
      "primitives": [
        {
          "mode": 4,
          "attributes": {
            "POSITION": 4,
            "NORMAL": 5,
            "TEXCOORD_0": 6
          },
          "extras": {
            "parameters": {
              "width": 6.299704551696777,
              "height": 0.0078006312251091,
              "depth": 3.681758165359497,
              "subdivisions": 0
            },
            "type": "NonParametricGeometry"
          }
        }
      ]
    },
    {
      "primitives": [
        {
          "mode": 4,
          "attributes": {
            "POSITION": 7,
            "NORMAL": 8,
            "TEXCOORD_0": 9
          },
          "extras": {
            "parameters": {
              "width": 1.7037109732627869,
              "height": 1.5555663704872131,
              "depth": 2.205680012702942,
              "subdivisions": 0
            },
            "type": "NonParametricGeometry"
          }
        }
      ]
    },
    {
      "primitives": [
        {
          "mode": 4,
          "attributes": {
            "POSITION": 10,
            "NORMAL": 11,
            "TEXCOORD_0": 12
          },
          "extras": {
            "parameters": {
              "width": 6.299704551696777,
              "height": 0.19191955029964447,
              "depth": 3.681758165359497,
              "subdivisions": 0
            },
            "type": "NonParametricGeometry"
          }
        }
      ]
    },
    {
      "primitives": [
        {
          "mode": 4,
          "attributes": {
            "POSITION": 13,
            "NORMAL": 14,
            "TEXCOORD_0": 15
          },
          "extras": {
            "parameters": {
              "width": 2652,
              "widthSegments": 1,
              "heightSegments": 1,
              "depthSegments": 1,
              "cornerRadius": 8,
              "cornerSegments": 8,
              "height": 1608,
              "depth": 2652,
              "type": "CubeGeometry"
            },
            "type": "CubeGeometry"
          },
          "indices": 16
        }
      ]
    },
    {
      "primitives": [
        {
          "mode": 4,
          "attributes": {
            "POSITION": 17,
            "NORMAL": 18,
            "TEXCOORD_0": 19
          },
          "extras": {
            "parameters": {
              "width": 3.8400001525878906,
              "height": 2,
              "depth": 2.165240526199341,
              "subdivisions": 0
            },
            "type": "NonParametricGeometry"
          }
        }
      ]
    }
  ],
  "extensionsUsed": [
    "KHR_lights_punctual"
  ]
}