<svg xmlns="http://www.w3.org/2000/svg" viewBox="3770 1050 220 280" width="150" height="150">
    <style>
        .s0 { fill: #5cb6a4 } 
        .s1 { fill: #418074 } 
        .s2 { fill: #ffffff } 
    </style>
    <g id="Logo">
        <path class="s0" d="m3961.42 1190.28c0 52.49-30.88 97.73-91.29 97.73-60.68 0-91.29-45.24-91.29-97.73 0-52.49 30.61-97.72 91.29-97.72 60.41 0 91.29 45.23 91.29 97.72z"/>
        <path class="s1" d="m3788.5 1219.41q-0.08-0.12-0.17-0.23 0.08 0.18 0.17 0.23z"/>
        <path class="s1" d="m3860.4 1195.32c-29.16-7.82-56.26-25.57-84.25-34.93-3.08 15.94 7.05 42.67 18.54 56.71q-0.01-0.03-0.03-0.06c0.11 0.17 0.2 0.33 0.42 0.3q-0.14 0.01-0.22-0.02c44.7 53.72 80.37-83.88 65.54-22z"/>
        <path class="s1" d="m3800.55 1233.52q0.1-0.08-0.01-0.15 0 0.08 0.01 0.15z"/>
        <path fill-rule="evenodd" class="s2" d="m3943.91 1146.71c-65.8 22.46-25.57 41.62-76.58 93.42 0.36 0-38.79 28.6-61.72 24.92-2.84-0.45-5.78 0.29-1.84-4.24 27.57-31.77 5.22-77.35 5.22-77.33-5.8-13.46-13.52-25.13-7.07-45.47 1.61-5.06 36.75 33.33 57.66 45.91 25.31-44.75 41.52-40.1 88.05-43.41 21.7-1.54 11.96 0.86-3.72 6.2zm-33.5 2.38c0-1.46-1.19-2.65-2.65-2.65-1.46 0-2.64 1.19-2.64 2.65 0 1.46 1.18 2.65 2.64 2.65 1.46 0 2.65-1.19 2.65-2.65z"/>
    </g>
</svg>